<svg width="119" height="53" viewBox="0 0 119 53" fill="none" xmlns="http://www.w3.org/2000/svg">
<path d="M115.689 13.8019C117.518 13.8019 119.001 12.3192 119.001 10.4901C119.001 8.66109 117.518 7.17834 115.689 7.17834C113.86 7.17834 112.377 8.66109 112.377 10.4901C112.377 12.3192 113.86 13.8019 115.689 13.8019Z" fill="#F2EFDC"/>
<path d="M100.783 14.0781C102.613 14.0781 104.095 12.5953 104.095 10.7663C104.095 8.93721 102.613 7.45447 100.783 7.45447C98.9544 7.45447 97.4717 8.93721 97.4717 10.7663C97.4717 12.5953 98.9544 14.0781 100.783 14.0781Z" fill="#F2EFDC"/>
<path d="M115.689 6.62359C117.518 6.62359 119.001 5.14085 119.001 3.3118C119.001 1.48274 117.518 0 115.689 0C113.86 0 112.377 1.48274 112.377 3.3118C112.377 5.14085 113.86 6.62359 115.689 6.62359Z" fill="#F2EFDC"/>
<path d="M14.3066 31.2223V37.8446H20.6885C28.213 37.8446 34.3135 31.7441 34.3135 24.2196H27.6912V31.2223H14.3066Z" fill="#F2EFDC"/>
<path d="M30.7259 46.2792C32.5549 46.2792 34.0377 44.7965 34.0377 42.9674C34.0377 41.1384 32.5549 39.6556 30.7259 39.6556C28.8968 39.6556 27.4141 41.1384 27.4141 42.9674C27.4141 44.7965 28.8968 46.2792 30.7259 46.2792Z" fill="#F2EFDC"/>
<path d="M37.9026 46.2792C39.7317 46.2792 41.2144 44.7965 41.2144 42.9674C41.2144 41.1384 39.7317 39.6556 37.9026 39.6556C36.0736 39.6556 34.5908 41.1384 34.5908 42.9674C34.5908 44.7965 36.0736 46.2792 37.9026 46.2792Z" fill="#F2EFDC"/>
<path d="M20.633 22.3213H14.0107V23.316H20.633V22.3213Z" fill="#F2EFDC"/>
<path d="M20.6311 17.2129H14.0088V27.8828H20.6311V17.2129Z" fill="#F2EFDC"/>
<path d="M112.375 17.2222V35.9569C109.23 35.9569 106.544 33.9912 105.482 31.2223C105.165 30.4007 104.99 29.5063 104.99 28.5724V25.6384C104.99 21.0254 101.284 17.2367 96.6706 17.2129C90.9321 17.1826 85.7365 19.4996 81.9769 23.2579C78.245 26.9898 75.9346 32.1471 75.9346 37.8459H102.36C106.113 42.9609 112.166 46.2806 118.998 46.2806V17.2248H112.376L112.375 17.2222ZM98.7499 31.2223H86.6335C86.6335 27.143 89.9387 23.8378 94.018 23.8378H95.3654C97.2334 23.8378 98.7499 25.3544 98.7499 27.2223V31.2223Z" fill="#F2EFDC"/>
<path d="M34.3135 24.2209C34.3135 31.7454 40.4139 37.8459 47.9385 37.8459H75.9348C75.9348 26.4534 66.6956 17.2129 55.3018 17.2129H46.8764V21.4956C46.8764 25.1535 49.8421 30.83 53.4986 30.83V23.8391H58.2305C62.3125 23.8391 65.6177 27.1456 65.6177 31.2236H40.9357V24.2182H34.3161L34.3135 24.2209Z" fill="#F2EFDC"/>
<path d="M20.633 23.3159V52.3717C20.448 52.3717 20.2644 52.3691 20.0821 52.3638C20.0333 52.3638 19.9844 52.3612 19.9381 52.3585C19.8457 52.3585 19.7532 52.3532 19.6647 52.3479C19.559 52.3453 19.456 52.3374 19.3503 52.3321C19.3067 52.3295 19.2657 52.3268 19.2221 52.3242C19.2116 52.3242 19.2036 52.3242 19.1918 52.3215C19.1786 52.3215 19.168 52.3189 19.1535 52.3189H19.1508C19.0782 52.3136 19.0015 52.3083 18.9289 52.303C13.909 51.9556 9.39905 50.0652 6.04234 46.9384C2.31046 43.4588 0 38.464 0 32.3807V31.2222H6.62491V33.5763C6.64869 35.7626 7.4981 38.1377 8.85743 39.9541C10.1864 41.2501 12.0028 42.0506 14.0107 42.0506V23.3159H20.633Z" fill="#F2EFDC"/>
</svg>
